<?xml version="1.0" encoding="UTF-8" standalone="no"?>
<!-- Created with Inkscape (http://www.inkscape.org/) -->

<svg
   version="1.1"
   id="svg1"
   width="1879.423"
   height="682.99951"
   viewBox="0 0 1879.4229 682.99949"
   xmlns="http://www.w3.org/2000/svg"
   xmlns:svg="http://www.w3.org/2000/svg">
  <defs
     id="defs1" />
  <g
     id="g27-8-7"
     transform="matrix(0.56091772,0,0,0.56091772,-926.21092,708.262)"
     style="display:inline">
    <g
       id="g15-1-9"
       transform="matrix(1.7873197,0,0,1.7873197,1991.6373,-1886.9613)">
      <path
         d="m 274.98854,395.24444 c 8.63281,16.9297 16.34843,62.2391 6.62186,79.0751 -1.19659,2.0736 -2.53028,4.065 -3.99218,5.9609 89.47656,85.4531 131.72389,276.2639 62.57545,395.9748 -69.14844,119.711 -227.0989,129.21266 -345.8488971,94.4783 -0.910252,2.2139 -1.967289,4.3645 -3.16406,6.4375 -9.6484399,16.6875 -38.8855149,34.90256 -57.6511249,36.05886 -12.12023,-23.76876 0.7628,-57.59286 10.99734,-70.86556 -35.7596,-60.2577 -85.034268,-212.40148 -15.885829,-332.11238 69.148422,-119.711 223.030281,-165.54282 293.114911,-162.71862 6.34946,-15.2384 26.71164,-50.6547 53.23253,-52.2889 z"
         fill="#fbdb7b"
         id="path2-6-1-9"
         style="stroke-width:0.78125" />
      <path
         d="m -54.722842,932.00504 c 114.785673,-21.9372 245.480672,-62.9806 292.501502,-145.0535 43.60417,-76.099 45.52958,-331.7838 37.98517,-373.9012 4.24696,-1.2163 8.3172,9.7559 12.72669,9.4871 8.63281,16.9297 9.07813,37.0156 -0.64844,53.8516 -1.19658,2.0736 -2.53028,4.0649 -3.99218,5.9609 89.47656,85.4609 137.80434,252.9087 57.32498,391.9241 -69.26466,119.6438 -216.21022,135.94186 -334.9602221,101.2075 -0.910252,2.2138 -1.967289,4.3645 -3.16406,6.4375 -9.64844,16.6875 -27.0156299,26.29686 -45.7812499,27.45316 -8.63282,-16.92966 -9.07813,-37.01566 0.64843,-53.85156 1.19657,-2.0736 2.530268,-4.065 3.99219,-5.9609 -5.83851,-5.5656 -11.38996,-11.4248 -16.63281,-17.5547 z"
         fill="#f9af49"
         id="path3-0-1-2"
         style="stroke-width:0.78125" />
      <path
         style="stroke-width:0.78125"
         d="m 287.51878,499.73134 -10.38281,-9.9453 8.79687,-11.3984 c 1.02687,-1.332 1.96384,-2.7309 2.80469,-4.1875 5.39844,-9.375 6.53125,-20.4922 3.17969,-31.3672 -3.64481,-11.5178 -11.52785,-21.2214 -22.05469,-27.1484 -21.78906,-12.5782 -48.77345,-6.7735 -60.15626,12.9218 -0.84173,1.4568 -1.58556,2.9679 -2.22656,4.5235 l -29.59375,-12.1797 c 1.18311,-2.8719 2.55593,-5.6619 4.10937,-8.3516 20.19531,-34.9687 66.78907,-46.0234 103.85157,-24.6328 17.53096,9.9618 30.62666,26.2072 36.64063,45.4531 5.46875,17.8282 4.14844,36.2266 -3.70313,52.3438"
         id="path1" />
      <path
         style="stroke-width:0.78125"
         d="m -37.706005,1030.5507 c -14.170297,-0.038 -28.080157,-3.8111 -40.328117,-10.9375 -17.53096,-9.9618 -30.626658,-26.20716 -36.640628,-45.45306 -5.46875,-17.8282 -4.14843,-36.2266 3.70313,-52.3438 -40.67187,-42.9375 -9.19531,-52.4844 31.210938,-13.9062 l 10.41406,9.9453 -8.79688,11.3984 c -1.02205,1.3147 -1.95637,2.6953 -2.79687,4.1328 -5.39844,9.375 -6.53125,20.4844 -3.17969,31.3672 3.64479,11.5178 11.52783,21.2215 22.05469,27.1485 21.78906,12.57806 48.773437,6.7734 60.1562469,-12.9219 0.84183,-1.4567 1.58567001,-2.9679 2.22656001,-4.5235 l 5.46874999,-13.2812 13.8125001,4.0391 c 53.66406,15.6875 61.11719,47.75776 3.55469,34.0234 -13.6796901,20.22656 -36.72656,31.31246 -60.85938,31.31246 z"
         id="path2" />
    </g>
    <g
       id="g14-9-8"
       transform="matrix(1.2401571,0.71134787,-0.71134787,1.2401571,2178.2212,-1037.4473)"
       style="display:inline;fill:#ffffff;fill-opacity:1">
      <path
         d="m 11.221,277.333 c 5.888,0 10.667,-4.779 10.667,-10.667 0,-88.235 71.765,-160 160,-160 86.549,0 116.864,48.939 141.227,88.277 14.336,23.147 26.709,43.136 47.488,49.877 5.739,1.835 11.627,-1.28 13.44,-6.848 1.813,-5.611 -1.259,-11.627 -6.848,-13.44 -13.333,-4.331 -23.808,-21.227 -35.947,-40.811 -25.707,-41.515 -60.907,-98.368 -159.36,-98.368 -99.989,0 -181.333,81.344 -181.333,181.333 0,5.869 4.778,10.647 10.666,10.647 z"
         id="path1-1-9"
         style="display:inline;fill:#ffffff;fill-opacity:1" />
      <path
         d="m 21.888,352 c 1.6,0 3.221,-0.363 4.779,-1.131 5.269,-2.645 7.403,-9.045 4.779,-14.315 -3.861,-7.68 -9.536,-21.675 -9.536,-27.221 0,-5.888 -4.779,-10.667 -10.667,-10.667 -5.888,0 -10.667,4.779 -10.667,10.667 0,12.544 9.835,32.832 11.797,36.779 1.856,3.712 5.632,5.888 9.515,5.888 z"
         id="path2-9-1"
         style="display:inline;fill:#ffffff;fill-opacity:1" />
      <path
         d="m 79.616,41.728 c 4.843,-2.197 9.003,-4.288 12.885,-6.315 15.936,-8.171 27.456,-14.08 78.72,-14.08 57.664,0 78.891,7.872 101.376,16.235 4.075,1.515 8.192,3.051 12.501,4.523 1.131,0.405 2.283,0.576 3.456,0.576 4.437,0 8.555,-2.773 10.091,-7.211 1.92,-5.568 -1.045,-11.627 -6.635,-13.547 -4.139,-1.429 -8.064,-2.901 -12.011,-4.352 C 256.725,8.939 232.683,0 171.179,0 114.752,0 100.63,7.253 82.731,16.448 c -3.605,1.856 -7.424,3.819 -11.925,5.824 -5.355,2.411 -7.744,8.725 -5.355,14.101 2.432,5.376 8.768,7.766 14.165,5.355 z"
         id="path3-6-5"
         style="display:inline;fill:#ffffff;fill-opacity:1" />
      <path
         d="m 343.445,144.277 c 0.171,0.213 15.445,25.067 20.267,40.299 1.451,4.523 5.675,7.424 10.176,7.424 1.088,0 2.176,-0.171 3.243,-0.491 5.611,-1.813 8.704,-7.808 6.912,-13.419 -5.675,-17.707 -21.739,-43.904 -22.421,-44.992 -3.115,-5.035 -9.707,-6.613 -14.677,-3.499 -5.014,3.094 -6.593,9.644 -3.5,14.678 z"
         id="path4-9-4"
         style="display:inline;fill:#ffffff;fill-opacity:1" />
      <path
         d="m 69.12,299.115 c -8.64,-30.123 -5.056,-61.803 10.112,-89.237 15.168,-27.435 40.128,-47.339 70.251,-56 61.376,-17.408 126.165,17.856 144.661,78.677 0.256,0.832 0.597,1.621 1.067,2.368 1.323,2.219 2.475,4.139 40.405,35.499 4.523,3.755 11.221,3.115 15.019,-1.429 3.755,-4.544 3.115,-11.243 -1.429,-15.019 -25.963,-21.461 -33.579,-28.245 -35.264,-29.696 -22.677,-70.656 -98.603,-111.403 -170.283,-90.923 -35.648,10.24 -65.131,33.749 -83.072,66.176 -17.92,32.427 -22.165,69.845 -11.947,105.451 17.493,60.821 -20.032,77.696 -31.979,81.408 -5.632,1.771 -8.747,7.744 -6.997,13.376 1.429,4.565 5.653,7.488 10.197,7.488 1.045,0 2.133,-0.149 3.179,-0.469 32.619,-10.198 64.235,-44.524 46.08,-107.67 z"
         id="path5-3-9"
         style="display:inline;fill:#ffffff;fill-opacity:1" />
      <path
         d="m 16.341,126.464 c 5.035,3.008 11.584,1.451 14.699,-3.584 C 40.32,107.605 85.952,64 171.221,64 c 82.005,0 140.352,41.536 150.869,58.88 2.048,3.285 5.547,5.12 9.131,5.12 1.899,0 3.819,-0.491 5.547,-1.536 5.013,-3.072 6.635,-9.621 3.584,-14.677 -14.635,-24.107 -79.253,-69.12 -169.131,-69.12 -95.552,0 -146.773,49.899 -158.464,69.12 -3.029,5.056 -1.429,11.605 3.584,14.677 z"
         id="path6-3-2"
         style="display:inline;fill:#ffffff;fill-opacity:1" />
      <path
         d="m 281.173,442.688 c 3.712,-4.523 2.987,-11.221 -1.579,-14.933 -54.592,-44.181 -112.512,-96.832 -128.448,-152.256 -2.368,-8.213 -1.387,-16.853 2.752,-24.341 4.139,-7.488 10.944,-12.885 19.136,-15.253 8.235,-2.325 16.896,-1.365 24.363,2.752 7.488,4.117 12.885,10.944 15.253,19.157 7.04,24.448 31.957,55.232 76.139,94.101 4.416,3.925 11.136,3.456 15.04,-0.96 3.904,-4.416 3.477,-11.157 -0.96,-15.04 -50.389,-44.352 -65.749,-70.165 -69.739,-84.011 -3.925,-13.717 -12.949,-25.045 -25.408,-31.936 -12.459,-6.869 -26.816,-8.469 -40.555,-4.587 -13.717,3.947 -25.045,12.949 -31.936,25.429 -6.891,12.459 -8.512,26.859 -4.587,40.533 17.557,61.099 78.357,116.651 135.531,162.944 1.984,1.6 4.352,2.368 6.699,2.368 3.115,0.001 6.187,-1.343 8.299,-3.967 z"
         id="path7-8-5"
         style="display:inline;fill:#ffffff;fill-opacity:1" />
      <path
         d="m 192.149,263.701 c -1.643,-5.675 -7.467,-8.96 -13.205,-7.296 -5.653,1.621 -8.917,7.552 -7.296,13.205 16.811,58.453 80.661,106.923 119.531,136.427 l 12.203,-17.536 c -36.054,-27.349 -96.385,-73.13 -111.233,-124.8 z"
         id="path8-0-7"
         style="display:inline;fill:#ffffff;fill-opacity:1" />
      <path
         d="m 149.397,370.091 c -1.813,-5.611 -7.808,-8.661 -13.419,-6.912 -5.611,1.792 -8.704,7.808 -6.912,13.419 9.131,28.544 -8.811,84.523 -35.797,93.269 -5.611,1.813 -8.661,7.829 -6.848,13.44 1.451,4.501 5.653,7.381 10.155,7.381 1.088,0 2.219,-0.171 3.285,-0.512 41.088,-13.355 60.864,-84.651 49.536,-120.085 z"
         id="path10-5-4"
         style="display:inline;fill:#ffffff;fill-opacity:1" />
      <path
         d="m 110.315,287.957 c -9.259,-42.048 12.651,-82.048 50.944,-93.035 39.552,-11.285 81.045,11.563 92.395,51.115 3.541,12.267 12.885,26.667 46.891,57.045 4.395,3.904 11.136,3.541 15.061,-0.853 3.925,-4.395 3.541,-11.136 -0.853,-15.061 -32.277,-28.821 -38.656,-40.277 -40.597,-47.019 -14.635,-50.837 -67.947,-80.299 -118.763,-65.728 -49.28,14.144 -77.611,64.917 -65.899,118.123 21.547,98.091 5.461,120.789 -38.763,134.613 -5.632,1.771 -8.747,7.744 -6.997,13.376 1.429,4.565 5.653,7.488 10.197,7.488 1.045,0 2.133,-0.149 3.179,-0.469 61.717,-19.349 75.178,-59.584 53.205,-159.595 z"
         id="path11-6-9"
         style="display:inline;fill:#ffffff;fill-opacity:1" />
      <path
         d="m 245.781,462.805 c -10.603,-14.379 -26.624,-36.139 -53.227,-36.139 -36.181,0 -41.877,61.653 -42.645,74.005 -0.384,5.867 4.096,10.944 9.984,11.307 0.213,0.021 0.448,0.021 0.661,0.021 5.611,0 10.283,-4.352 10.645,-10.005 1.365,-22.059 9.771,-53.995 21.355,-53.995 15.808,0 27.051,15.232 36.032,27.456 3.584,4.864 6.805,9.152 9.749,12.075 4.16,4.16 10.923,4.16 15.083,0 4.16,-4.16 4.16,-10.923 0,-15.083 -2.303,-2.324 -4.799,-5.78 -7.637,-9.642 z"
         id="path12-6-9"
         style="display:inline;fill:#ffffff;fill-opacity:1" />
    </g>
  </g>
  <path
     style="font-weight:800;font-size:870.839px;font-family:UniRennes;-inkscape-font-specification:'UniRennes, Ultra-Bold';font-variant-caps:small-caps;fill:#000000;fill-opacity:1;stroke:#004070;stroke-width:3.65135"
     d="m 422.28457,1373.0981 h 146.11991 v -36.5753 H 489.1687 c 36.57524,-47.8961 56.60453,-110.5965 56.60453,-180.2636 0,-175.03867 -121.04662,-305.66452 -305.66448,-305.66452 -183.747028,0 -304.793648,130.62585 -304.793648,305.66452 0,172.4261 121.04662,290.8602 304.793648,290.8602 h 328.29573 v -36.5753 H 240.10875 c -164.588571,0 -266.476732,-99.2756 -266.476732,-254.2849 0,-157.62189 101.888161,-267.34761 266.476732,-267.34761 165.45941,0 267.34757,109.72572 267.34757,267.34761 0,74.8921 -23.51265,136.7217 -67.0546,180.2636 -23.40057,20.6008 -52.86557,36.5753 -18.11715,36.5753 z"
     id="text1"
     aria-label="Q"
     transform="translate(66.510573,-780.38906)" />
  <g
     id="layer4-9"
     transform="translate(-1473.9476,299.9649)">
    <path
       style="font-weight:800;font-size:15.6133px;font-family:UniRennes;-inkscape-font-specification:'UniRennes, Ultra-Bold';font-variant-caps:small-caps;white-space:pre;display:inline;stroke-width:1370.34"
       d="M 2460.3578,11.581071 V 365.38947 h 29.72 V 11.581071 Z M 2426.3921,365.38947 V 11.581071 h -29.72 V 245.80217 c -7.7834,13.4446 -29.012,40.3342 -73.592,40.3342 -45.9949,0 -72.8845,-32.5503 -72.8845,-74.2999 V 11.581071 H 2219.768 V 211.83647 c 0,67.2234 40.3344,104.7274 103.3121,104.7274 31.8429,0 55.9018,-12.0297 73.592,-29.72 v 33.9657 c -20.5206,14.86 -46.7023,23.3514 -75.0074,23.3514 -63.6852,0 -133.032,-27.5971 -133.032,-132.3245 V 11.581071 h -30.4272 V 211.83647 c 0,91.9902 55.1941,160.6291 161.3364,160.6291 28.305,0 55.1943,-6.3686 77.1302,-20.5211 v 13.445 z m 142.2313,0 h 29.7195 v -472.6883 h -29.7195 z m 152.8453,-472.6883 h -89.1601 v 472.6883 h 29.72 v -173.3662 h 43.1645 l 81.376,173.3662 h 33.9656 l -84.914,-174.0736 c 11.3221,-0.707 21.9363,-2.8326 31.1353,-4.9537 l 84.9141,179.0273 h 32.5503 l -90.5747,-189.6415 c 52.3634,-26.8892 79.9605,-81.375999 79.9605,-133.739499 v -0.707 c 0,-89.1599 -63.1375,-148.599901 -152.1375,-148.599901 -89,0 0,-4e-4 0,-4e-4 z m -59.4401,271.725 v -31.1349 h 40.3343 c 66.5159,0 108.9731,-32.5508 108.9731,-91.282799 -0.7069,-58.732 -41.7497,-90.5748 -108.9731,-90.5748 h -40.3343 v -31.1354 h 51.6559 c 76.4228,0 129.4943,50.2411 129.4943,121.7102 0,72.177099 -53.0715,122.417699 -129.4943,122.417699 z m 0,-60.8549 V -18.846329 h 44.58 c 45.2873,0 74.2999,20.5206004 75.0074,60.8548 -0.707,41.7492 -29.7201,61.562799 -75.0074,61.562799 z m 297.1992,261.8182 h 29.72 v -472.6883 h -29.72 z m 139.4006,-472.6883 h -75.7154 v 472.6883 h 82.7914 c 149.3075,0 247.6662,-101.1891 247.6662,-236.3439 0,-135.1552986 -101.1897,-236.3444 -254.7422,-236.3444 z m -45.9954,406.1724 h 58.0247 c 105.4352,0 173.3661,-70.0543 173.3661,-169.828 0,-101.189599 -70.7617,-169.828399 -180.4422,-169.828399 h -50.9486 v -36.796 h 45.9954 c 141.5235,0 225.0221,83.4988004 225.0221,206.624399 0,123.1252 -81.3759,206.624 -217.9461,206.624 h -53.0714 z m 0,-29.72 V -11.062929 h 50.9486 c 91.9902,0 150.7221,54.4868 150.7221,140.108499 0,84.9138 -55.9015,140.108 -143.646,140.108 z"
       id="text26-2-0"
       aria-label="QuRD" />
  </g>
  <g
     id="g1"
     style="display:inline"
     transform="matrix(1.0025285,-0.00464661,0.00464661,1.0025285,442.55103,-1111.5362)">
    <path
       d="m -201.29655,1247.0035 q 68.0625,0 123.242181,-61.5938 -55.179681,-61.5937 -123.242181,-61.5937 -68.0625,0 -123.24219,61.5937 55.17969,61.5938 123.24219,61.5938 z"
       fill="#89d66d"
       id="path5-2-3-3"
       style="stroke-width:0.78125" />
    <path
       d="m -198.17155,1263.0035 c -49.90625,0 -95.38282,-22.5157 -135.15625,-66.9141 l -9.5625,-10.6797 9.5625,-10.6797 c 39.78125,-44.4062 85.25,-66.914 135.15625,-66.914 49.90625,0 95.38281,22.5156 135.156251,66.914 l 9.5625,10.6797 -9.5625,10.6797 c -39.773441,44.4062 -85.250001,66.9141 -135.156251,66.9141 z m -101.11719,-77.5938 c 13.9375,13.7109 28.50781,24.4141 43.46094,31.8828 a 128.22656,128.22656 0 0 0 115.38281,0 c 14.95312,-7.4765 29.52344,-18.1719 43.460941,-31.8828 -13.937501,-13.7109 -28.507821,-24.4141 -43.460941,-31.8828 a 128.23437,128.23437 0 0 0 -115.38281,0 c -14.98438,7.4766 -29.5625,18.1719 -43.46094,31.8828 z"
       fill=""
       id="path6-6-4-0"
       style="stroke-width:0.78125" />
    <path
       d="m -215.0153,1173.1363 h 118.398431 a 8.796875,8.796875 0 0 1 8.79688,8.7968 v 6.3985 a 8.796875,8.796875 0 0 1 -8.79688,8.7969 H -215.0153 a 8.796875,8.796875 0 0 1 -8.79688,-8.7969 v -6.3985 a 8.796875,8.796875 0 0 1 8.79688,-8.7968 z"
       fill="#015200"
       id="path7-1-0-1"
       style="stroke-width:0.78125" />
  </g>
</svg>
