<?xml version="1.0" encoding="UTF-8"?>
<svg xmlns="http://www.w3.org/2000/svg" xmlns:xlink="http://www.w3.org/1999/xlink" width="283.465pt" height="127.559pt"
    viewBox="0 0 283.465 127.559" version="1.1">
    <g id="surface1">
        <path style=" stroke:none;fill-rule:nonzero;fill:rgb(100%,100%,100%);fill-opacity:1;"
            d="M 62.859375 73.542969 L 82.386719 93.066406 L 85.640625 89.8125 L 66.117188 70.289062 Z M 62.859375 73.542969 " />
        <path style=" stroke:none;fill-rule:nonzero;fill:rgb(100%,100%,100%);fill-opacity:1;"
            d="M 69.371094 67.035156 L 88.894531 86.558594 L 92.148438 83.304688 L 72.625 63.78125 Z M 69.371094 67.035156 " />
        <path style=" stroke:none;fill-rule:nonzero;fill:rgb(100%,100%,100%);fill-opacity:1;"
            d="M 33.574219 44.253906 L 53.097656 63.78125 L 56.351562 60.527344 L 36.828125 41 Z M 33.574219 44.253906 " />
        <path style=" stroke:none;fill-rule:nonzero;fill:rgb(100%,100%,100%);fill-opacity:1;"
            d="M 40.082031 37.746094 L 59.609375 57.273438 L 62.863281 54.019531 L 43.335938 34.492188 Z M 40.082031 37.746094 " />
        <path style=" stroke:none;fill-rule:nonzero;fill:rgb(100%,100%,100%);fill-opacity:1;"
            d="M 82.386719 34.492188 L 62.863281 54.015625 L 66.113281 57.273438 L 85.640625 37.746094 Z M 82.386719 34.492188 " />
        <path style=" stroke:none;fill-rule:nonzero;fill:rgb(100%,100%,100%);fill-opacity:1;"
            d="M 88.894531 41 L 69.371094 60.523438 L 72.625 63.78125 L 92.148438 44.253906 Z M 88.894531 41 " />
        <path style=" stroke:none;fill-rule:nonzero;fill:rgb(100%,100%,100%);fill-opacity:1;"
            d="M 53.097656 63.78125 L 33.574219 83.304688 L 36.828125 86.558594 L 56.351562 67.035156 Z M 53.097656 63.78125 " />
        <path style=" stroke:none;fill-rule:nonzero;fill:rgb(100%,100%,100%);fill-opacity:1;"
            d="M 59.605469 70.289062 L 40.082031 89.8125 L 43.335938 93.066406 L 62.859375 73.542969 Z M 59.605469 70.289062 " />
        <path style=" stroke:none;fill-rule:nonzero;fill:rgb(100%,100%,100%);fill-opacity:1;"
            d="M 55.960938 43.070312 L 60.5625 43.070312 L 60.5625 29.265625 L 55.960938 29.265625 Z M 55.960938 43.070312 " />
        <path style=" stroke:none;fill-rule:nonzero;fill:rgb(100%,100%,100%);fill-opacity:1;"
            d="M 65.160156 43.070312 L 69.765625 43.070312 L 69.765625 29.265625 L 65.160156 29.265625 Z M 65.160156 43.070312 " />
        <path style=" stroke:none;fill-rule:nonzero;fill:rgb(100%,100%,100%);fill-opacity:1;"
            d="M 55.960938 98.292969 L 60.5625 98.292969 L 60.5625 84.488281 L 55.960938 84.488281 Z M 55.960938 98.292969 " />
        <path style=" stroke:none;fill-rule:nonzero;fill:rgb(100%,100%,100%);fill-opacity:1;"
            d="M 65.160156 98.292969 L 69.765625 98.292969 L 69.765625 84.488281 L 65.160156 84.488281 Z M 65.160156 98.292969 " />
        <path style=" stroke:none;fill-rule:nonzero;fill:rgb(100%,100%,100%);fill-opacity:1;"
            d="M 97.375 56.878906 L 83.570312 56.878906 L 83.570312 61.480469 L 97.375 61.480469 Z M 97.375 56.878906 " />
        <path style=" stroke:none;fill-rule:nonzero;fill:rgb(100%,100%,100%);fill-opacity:1;"
            d="M 97.375 66.082031 L 83.570312 66.082031 L 83.570312 70.683594 L 97.375 70.683594 Z M 97.375 66.082031 " />
        <path style=" stroke:none;fill-rule:nonzero;fill:rgb(100%,100%,100%);fill-opacity:1;"
            d="M 28.347656 61.480469 L 42.152344 61.480469 L 42.152344 56.878906 L 28.347656 56.878906 Z M 28.347656 61.480469 " />
        <path style=" stroke:none;fill-rule:nonzero;fill:rgb(100%,100%,100%);fill-opacity:1;"
            d="M 28.347656 70.683594 L 42.152344 70.683594 L 42.152344 66.078125 L 28.347656 66.078125 Z M 28.347656 70.683594 " />
        <path style=" stroke:none;fill-rule:nonzero;fill:rgb(100%,100%,100%);fill-opacity:1;"
            d="M 154.484375 88.988281 L 158.609375 88.988281 L 158.609375 81.332031 L 160.515625 81.332031 L 164.113281 88.988281 L 168.425781 88.988281 L 164.425781 80.609375 C 166.738281 79.421875 167.957031 77.015625 167.957031 74.703125 L 167.957031 74.671875 C 167.957031 70.730469 164.613281 68.105469 161.234375 68.105469 L 154.484375 68.105469 Z M 158.609375 77.421875 L 158.609375 72.015625 L 160.578125 72.015625 C 162.546875 72.015625 163.863281 73.078125 163.894531 74.703125 C 163.863281 76.546875 162.578125 77.421875 160.578125 77.421875 Z M 185.464844 80.765625 C 185.464844 76.359375 182.558594 73.015625 177.898438 73.015625 C 173.050781 73.015625 170.113281 76.703125 170.113281 81.113281 C 170.113281 85.675781 173.050781 89.335938 177.898438 89.335938 C 181.367188 89.335938 183.339844 88.019531 185.089844 85.832031 L 182.058594 83.644531 C 180.992188 84.957031 179.835938 85.644531 178.148438 85.644531 C 176.148438 85.644531 174.710938 84.457031 174.273438 82.488281 L 185.371094 82.488281 C 185.464844 81.894531 185.464844 81.300781 185.464844 80.765625 M 174.335938 79.640625 C 174.773438 77.828125 176.085938 76.796875 178.023438 76.796875 C 179.617188 76.796875 180.992188 77.765625 181.367188 79.640625 Z M 188.496094 88.988281 L 192.625 88.988281 L 192.625 78.640625 C 192.96875 78.046875 193.90625 76.859375 195.875 76.859375 C 197.90625 76.859375 199.09375 78.296875 199.09375 80.140625 L 199.09375 88.988281 L 203.160156 88.988281 L 203.160156 80.140625 C 203.160156 76.078125 200.71875 73.046875 196.03125 73.046875 C 194.78125 73.046875 193.59375 73.328125 192.625 73.953125 L 192.625 73.359375 L 188.496094 73.359375 Z M 206.753906 88.988281 L 210.878906 88.988281 L 210.878906 78.640625 C 211.226562 78.046875 212.164062 76.859375 214.132812 76.859375 C 216.164062 76.859375 217.351562 78.296875 217.351562 80.140625 L 217.351562 88.988281 L 221.417969 88.988281 L 221.417969 80.140625 C 221.417969 76.078125 218.980469 73.046875 214.289062 73.046875 C 213.039062 73.046875 211.851562 73.328125 210.878906 73.953125 L 210.878906 73.359375 L 206.753906 73.359375 Z M 239.644531 80.765625 C 239.644531 76.359375 236.734375 73.015625 232.078125 73.015625 C 227.230469 73.015625 224.292969 76.703125 224.292969 81.113281 C 224.292969 85.675781 227.230469 89.335938 232.078125 89.335938 C 235.546875 89.335938 237.515625 88.019531 239.269531 85.832031 L 236.234375 83.644531 C 235.171875 84.957031 234.015625 85.644531 232.328125 85.644531 C 230.328125 85.644531 228.890625 84.457031 228.449219 82.488281 L 239.550781 82.488281 C 239.644531 81.894531 239.644531 81.300781 239.644531 80.765625 M 228.515625 79.640625 C 228.949219 77.828125 230.265625 76.796875 232.203125 76.796875 C 233.796875 76.796875 235.171875 77.765625 235.546875 79.640625 Z M 243.582031 84.582031 L 241.738281 85.332031 C 242.957031 87.675781 245.207031 89.335938 248.832031 89.335938 C 252.648438 89.335938 254.960938 87.113281 254.960938 84.457031 C 254.960938 81.800781 253.429688 80.332031 249.335938 79.421875 L 249.050781 79.359375 C 246.738281 78.859375 246.144531 78.515625 246.144531 77.671875 C 246.144531 77.015625 246.957031 76.359375 248.398438 76.359375 C 249.992188 76.359375 251.148438 77.265625 251.523438 78.453125 L 253.335938 77.796875 L 255.117188 77.078125 C 254.304688 74.390625 251.960938 73.015625 248.457031 73.015625 C 244.363281 73.015625 242.238281 75.359375 242.238281 77.890625 C 242.238281 80.707031 244.175781 82.050781 247.769531 82.894531 L 248.175781 82.988281 C 250.585938 83.550781 250.960938 83.832031 250.960938 84.582031 C 250.960938 85.457031 250.085938 85.925781 248.742188 85.925781 C 247.113281 85.925781 245.925781 85.019531 245.332031 83.832031 Z M 247.519531 77.671875 C 247.519531 77.734375 247.488281 77.734375 247.582031 77.734375 C 247.519531 77.734375 247.519531 77.703125 247.519531 77.671875 " />
        <path style=" stroke:none;fill-rule:nonzero;fill:rgb(100%,100%,100%);fill-opacity:1;"
            d="M 111.183594 35.890625 L 111.183594 48.492188 C 111.183594 53.617188 114.433594 57.089844 119.65625 57.089844 C 124.875 57.089844 128.160156 53.617188 128.160156 48.492188 L 128.160156 35.890625 L 124.03125 35.890625 L 124.03125 48.492188 C 124.03125 51.304688 122.40625 53.023438 119.65625 53.023438 C 116.902344 53.023438 115.308594 51.304688 115.308594 48.492188 L 115.308594 35.890625 Z M 132.066406 56.777344 L 136.191406 56.777344 L 136.191406 46.429688 C 136.539062 45.835938 137.476562 44.644531 139.445312 44.644531 C 141.476562 44.644531 142.664062 46.085938 142.664062 47.929688 L 142.664062 56.777344 L 146.726562 56.777344 L 146.726562 47.929688 C 146.726562 43.863281 144.289062 40.832031 139.601562 40.832031 C 138.351562 40.832031 137.164062 41.113281 136.191406 41.738281 L 136.191406 41.144531 L 132.066406 41.144531 Z M 150.449219 56.777344 L 154.453125 56.777344 L 154.453125 41.144531 L 150.449219 41.144531 Z M 150.386719 38.175781 L 154.511719 38.175781 L 154.511719 33.921875 L 150.386719 33.921875 Z M 167.519531 56.777344 L 173.394531 41.144531 L 169.113281 41.144531 L 165.265625 51.367188 L 161.171875 41.144531 L 156.890625 41.144531 L 163.234375 56.777344 Z M 190.027344 48.554688 C 190.027344 44.144531 187.121094 40.800781 182.460938 40.800781 C 177.617188 40.800781 174.675781 44.488281 174.675781 48.898438 C 174.675781 53.460938 177.617188 57.121094 182.460938 57.121094 C 185.933594 57.121094 187.902344 55.808594 189.652344 53.617188 L 186.621094 51.429688 C 185.558594 52.742188 184.402344 53.429688 182.710938 53.429688 C 180.710938 53.429688 179.273438 52.242188 178.835938 50.273438 L 189.933594 50.273438 C 190.027344 49.679688 190.027344 49.085938 190.027344 48.554688 M 178.898438 47.429688 C 179.335938 45.613281 180.648438 44.582031 182.585938 44.582031 C 184.183594 44.582031 185.558594 45.554688 185.933594 47.429688 Z M 193.125 56.777344 L 197.3125 56.777344 L 197.3125 46.398438 L 202.125 44.519531 L 202.125 40.457031 L 197.3125 42.300781 L 197.3125 41.144531 L 193.125 41.144531 Z M 205.660156 52.367188 L 203.816406 53.117188 C 205.035156 55.464844 207.285156 57.121094 210.914062 57.121094 C 214.726562 57.121094 217.039062 54.898438 217.039062 52.242188 C 217.039062 49.585938 215.507812 48.117188 211.414062 47.210938 L 211.132812 47.148438 C 208.816406 46.648438 208.222656 46.304688 208.222656 45.460938 C 208.222656 44.800781 209.035156 44.144531 210.472656 44.144531 C 212.070312 44.144531 213.226562 45.050781 213.601562 46.238281 L 215.414062 45.585938 L 217.195312 44.863281 C 216.382812 42.175781 214.039062 40.800781 210.535156 40.800781 C 206.441406 40.800781 204.316406 43.144531 204.316406 45.679688 C 204.316406 48.492188 206.253906 49.835938 209.847656 50.679688 L 210.253906 50.773438 C 212.664062 51.335938 213.039062 51.617188 213.039062 52.367188 C 213.039062 53.242188 212.164062 53.710938 210.816406 53.710938 C 209.191406 53.710938 208.003906 52.804688 207.410156 51.617188 Z M 209.597656 45.460938 C 209.597656 45.519531 209.566406 45.519531 209.660156 45.519531 C 209.597656 45.519531 209.597656 45.488281 209.597656 45.460938 M 220.382812 56.777344 L 224.386719 56.777344 L 224.386719 41.144531 L 220.382812 41.144531 Z M 220.324219 38.175781 L 224.449219 38.175781 L 224.449219 33.921875 L 220.324219 33.921875 Z M 230.136719 56.777344 L 234.140625 56.777344 L 234.140625 44.925781 L 238.484375 44.925781 L 238.484375 41.144531 L 234.140625 41.144531 L 234.140625 36.390625 L 230.136719 36.390625 L 230.136719 41.144531 L 227.011719 41.144531 L 227.011719 44.925781 L 230.136719 44.925781 Z M 255.117188 48.554688 C 255.117188 44.144531 252.210938 40.800781 247.550781 40.800781 C 242.707031 40.800781 239.765625 44.488281 239.765625 48.898438 C 239.765625 53.460938 242.707031 57.121094 247.550781 57.121094 C 251.023438 57.121094 252.992188 55.808594 254.742188 53.617188 L 251.710938 51.429688 C 250.648438 52.742188 249.492188 53.429688 247.800781 53.429688 C 245.800781 53.429688 244.363281 52.242188 243.925781 50.273438 L 255.023438 50.273438 C 255.117188 49.679688 255.117188 49.085938 255.117188 48.554688 M 243.988281 47.429688 C 244.425781 45.613281 245.738281 44.582031 247.675781 44.582031 C 249.269531 44.582031 250.648438 45.554688 251.023438 47.429688 Z M 245.394531 38.988281 L 249.523438 38.988281 L 252.648438 33.796875 L 248.210938 33.796875 Z M 245.394531 38.988281 " />
        <path style=" stroke:none;fill-rule:nonzero;fill:rgb(100%,100%,100%);fill-opacity:1;"
            d="M 122.8125 88.988281 L 127 88.988281 L 127 66.011719 L 122.8125 66.011719 L 122.8125 73.796875 C 121.625 73.296875 120.4375 73.015625 119.1875 73.015625 C 114.683594 73.015625 111.183594 76.359375 111.183594 81.175781 C 111.183594 85.925781 114.371094 89.335938 119.1875 89.335938 C 120.3125 89.335938 121.53125 89.113281 122.8125 88.332031 Z M 115.308594 81.175781 C 115.308594 78.390625 117.277344 76.828125 119.65625 76.828125 C 120.75 76.828125 121.875 77.234375 122.8125 77.828125 L 122.8125 84.269531 C 122 85.019531 121.0625 85.519531 119.59375 85.519531 C 117.308594 85.519531 115.308594 83.957031 115.308594 81.175781 M 144.851562 80.765625 C 144.851562 76.359375 141.945312 73.015625 137.289062 73.015625 C 132.441406 73.015625 129.503906 76.703125 129.503906 81.113281 C 129.503906 85.675781 132.441406 89.335938 137.289062 89.335938 C 140.757812 89.335938 142.726562 88.019531 144.476562 85.832031 L 141.445312 83.644531 C 140.382812 84.957031 139.226562 85.644531 137.539062 85.644531 C 135.535156 85.644531 134.097656 84.457031 133.660156 82.488281 L 144.757812 82.488281 C 144.851562 81.894531 144.851562 81.300781 144.851562 80.765625 M 133.722656 79.640625 C 134.160156 77.828125 135.472656 76.796875 137.414062 76.796875 C 139.007812 76.796875 140.382812 77.765625 140.757812 79.640625 Z M 133.722656 79.640625 " />
    </g>
</svg>