<?xml version="1.0" encoding="utf-8"?>
<!-- Generator: Adobe Illustrator 27.1.1, SVG Export Plug-In . SVG Version: 6.00 Build 0)  -->
<svg version="1.1" xmlns="http://www.w3.org/2000/svg" xmlns:xlink="http://www.w3.org/1999/xlink" x="0px" y="0px"
	 viewBox="0 0 250 213.4" style="enable-background:new 0 0 250 213.4;" xml:space="preserve">
<style type="text/css">
	.st0{opacity:0.5;}
</style>
<g id="Calque_5">
	<g id="Calque_3">
	</g>
</g>
<g id="Calque_1">
</g>
<g id="Calque_2">
	<g>
	</g>
</g>
<g id="Calque_4">
</g>
<g id="Mode_Isolation">
</g>
<g id="_x3C_Calque_x3E_">
	<g>
		<g>
			<g>
				<g>
					<g>
						<path d="M30.4,174.8v-41.6h5.4v41.6H30.4z"/>
						<path d="M56.8,174.8v-41.6h18.1c3.6,0,6.4,0.4,8.3,1.1c1.9,0.7,3.4,2.1,4.5,4c1.1,1.9,1.7,4,1.7,6.3c0,3-0.9,5.4-2.8,7.5
							c-1.9,2-4.8,3.3-8.7,3.9c1.4,0.7,2.5,1.4,3.3,2.1c1.6,1.5,3.1,3.3,4.5,5.5l7.1,11.3H86l-5.4-8.6c-1.6-2.5-2.9-4.4-3.9-5.7
							c-1-1.3-1.9-2.3-2.7-2.8c-0.8-0.5-1.6-0.9-2.5-1.1c-0.6-0.1-1.6-0.2-3-0.2h-6.3v18.5H56.8z M62.2,151.6h11.6
							c2.5,0,4.4-0.3,5.8-0.8c1.4-0.5,2.4-1.4,3.2-2.5c0.7-1.1,1.1-2.4,1.1-3.7c0-2-0.7-3.6-2.1-4.9c-1.4-1.3-3.6-1.9-6.6-1.9H62.2
							V151.6z"/>
						<path d="M110.2,174.8v-41.6h5.4v41.6H110.2z"/>
						<path d="M134.7,161.7l5.1-0.4c0.2,2.1,0.8,3.7,1.7,5c0.9,1.3,2.2,2.4,4.1,3.2c1.9,0.8,3.9,1.2,6.2,1.2c2.1,0,3.9-0.3,5.4-0.9
							c1.6-0.6,2.7-1.5,3.5-2.5c0.8-1.1,1.2-2.2,1.2-3.5c0-1.3-0.4-2.4-1.1-3.4c-0.7-1-2-1.8-3.7-2.4c-1.1-0.4-3.5-1.1-7.3-2
							c-3.7-0.9-6.4-1.8-7.9-2.6c-1.9-1-3.4-2.3-4.4-3.8c-1-1.5-1.4-3.2-1.4-5.1c0-2.1,0.6-4,1.8-5.8c1.2-1.8,2.9-3.2,5.1-4.1
							c2.2-0.9,4.7-1.4,7.5-1.4c3,0,5.7,0.5,8,1.5c2.3,1,4.1,2.4,5.3,4.3c1.2,1.9,1.9,4,2,6.4l-5.2,0.4c-0.3-2.6-1.2-4.5-2.8-5.9
							c-1.6-1.3-4-2-7.1-2c-3.3,0-5.6,0.6-7.1,1.8c-1.5,1.2-2.2,2.6-2.2,4.3c0,1.5,0.5,2.7,1.6,3.6c1,0.9,3.8,1.9,8.1,2.9
							c4.4,1,7.4,1.9,9,2.6c2.4,1.1,4.1,2.5,5.3,4.2c1.1,1.7,1.7,3.6,1.7,5.8c0,2.2-0.6,4.2-1.9,6.1c-1.2,1.9-3,3.4-5.4,4.5
							c-2.3,1.1-4.9,1.6-7.9,1.6c-3.7,0-6.8-0.5-9.3-1.6c-2.5-1.1-4.4-2.7-5.9-4.9C135.5,166.9,134.8,164.4,134.7,161.7z"/>
						<path d="M181.5,174.8l15.7-41.6h5.9l16.7,41.6h-6.2l-4.7-12.6h-17.1l-4.5,12.6H181.5z M193.2,157.8h13.9l-4.3-11.5
							c-1.3-3.5-2.3-6.4-2.9-8.6c-0.5,2.7-1.3,5.3-2.2,8L193.2,157.8z"/>
					</g>
				</g>
			</g>
		</g>
		<g class="st0">
			<path d="M104.9,81.6c0,0,9,5.8-0.4,12.1c-9.4,6.2-9,7.1-9,7.1s-1.9,3.1,1.6,2.7c3.5-0.4,14.8-7.4,15.6-13.6
				C113.5,83.5,104.9,81.6,104.9,81.6z"/>
			<path d="M98,94.9c0,0-10.7-0.4-5.8-10.6c4.9-10.1,4.1-11.2,4.1-11.2s0.1-3.1-2.7-1c-2.8,2.1-8.9,13.9-6.4,19.7
				C89.6,97.7,98,94.9,98,94.9z"/>
			<g>
				<g>
					<path d="M105.3,87.1c0,3.3-2.6,5.9-5.9,5.9c-3.3,0-5.9-2.6-5.9-5.9c0-3.3,2.6-5.9,5.9-5.9C102.7,81.2,105.3,83.8,105.3,87.1z"
						/>
				</g>
			</g>
		</g>
		<g>
			<g>
				<g>
					<g>
						<path d="M140,79.9h-1.2l0.6-1h1.6v6.8h-1V79.9z"/>
						<path d="M146.3,86l-0.8-0.6l1.6-2.2c-0.1,0-0.2,0-0.2,0c-0.1,0-0.1,0-0.2,0c-0.6,0-1-0.2-1.4-0.6c-0.4-0.4-0.6-0.9-0.6-1.5
							c0-0.6,0.2-1.2,0.7-1.6c0.4-0.4,1-0.7,1.6-0.7c0.6,0,1.2,0.2,1.6,0.7c0.5,0.4,0.7,1,0.7,1.6c0,0.5-0.2,1.1-0.7,1.7L146.3,86z
							 M145.7,81c0,0.4,0.1,0.7,0.4,0.9c0.3,0.3,0.6,0.4,0.9,0.4s0.7-0.1,0.9-0.4c0.3-0.3,0.4-0.6,0.4-0.9s-0.1-0.7-0.4-0.9
							c-0.3-0.3-0.6-0.4-0.9-0.4c-0.4,0-0.7,0.1-0.9,0.4C145.9,80.4,145.7,80.7,145.7,81z"/>
						<path d="M155.2,79.9h-3.4v-1h5.1l-4.3,7.1l-0.8-0.5L155.2,79.9z"/>
						<path d="M163.6,79.9h-2.1l-0.3,1.1c0,0,0.1,0,0.1,0s0.1,0,0.1,0c0.7,0,1.2,0.2,1.6,0.7c0.4,0.4,0.6,1,0.6,1.7
							c0,0.7-0.2,1.3-0.7,1.8c-0.5,0.5-1.1,0.7-1.8,0.7c-0.9,0-1.6-0.4-2.1-1.3l0.8-0.7c0.2,0.4,0.4,0.6,0.7,0.8
							c0.2,0.1,0.5,0.2,0.8,0.2c0.4,0,0.8-0.1,1-0.4c0.3-0.3,0.4-0.7,0.4-1.1c0-0.4-0.1-0.8-0.4-1.1c-0.3-0.3-0.6-0.4-1-0.4
							c-0.5,0-0.9,0.2-1.2,0.6h-0.3l1.1-3.6h2.8V79.9z"/>
					</g>
				</g>
				<g>
					<path d="M139,93.9h2.5v1H137l2.4-2.9c0.2-0.3,0.4-0.5,0.6-0.7c0.2-0.2,0.3-0.4,0.4-0.5c0.2-0.3,0.3-0.5,0.3-0.7
						c0-0.3-0.1-0.6-0.3-0.8c-0.2-0.2-0.5-0.3-0.8-0.3c-0.7,0-1.1,0.4-1.2,1.2h-1c0.2-1.4,0.9-2.2,2.2-2.2c0.6,0,1.1,0.2,1.6,0.6
						c0.4,0.4,0.6,0.9,0.6,1.5c0,0.4-0.1,0.7-0.3,1.1c-0.1,0.2-0.2,0.4-0.4,0.7c-0.2,0.3-0.4,0.6-0.7,0.9L139,93.9z"/>
					<path d="M144.5,91.4c0-1.1,0.3-2,0.8-2.6c0.5-0.6,1-0.9,1.7-0.9c0.6,0,1.2,0.3,1.7,0.9c0.5,0.6,0.8,1.5,0.8,2.7
						c0,1.1-0.3,2-0.8,2.6c-0.5,0.6-1,0.9-1.6,0.9c-0.6,0-1.2-0.3-1.7-0.9C144.8,93.5,144.5,92.6,144.5,91.4z M145.6,91.4
						c0,0.8,0.1,1.4,0.4,1.9c0.3,0.5,0.6,0.7,1,0.7c0.4,0,0.7-0.2,1-0.7c0.3-0.5,0.4-1.1,0.4-1.9c0-0.7-0.1-1.4-0.4-1.9
						c-0.3-0.5-0.6-0.7-1-0.7c-0.4,0-0.7,0.2-1,0.7C145.7,90.1,145.6,90.7,145.6,91.4z"/>
					<path d="M153.8,93.9h2.5v1h-4.6l2.4-2.9c0.2-0.3,0.4-0.5,0.6-0.7c0.2-0.2,0.3-0.4,0.4-0.5c0.2-0.3,0.3-0.5,0.3-0.7
						c0-0.3-0.1-0.6-0.3-0.8c-0.2-0.2-0.5-0.3-0.8-0.3c-0.7,0-1.1,0.4-1.2,1.2h-1c0.2-1.4,0.9-2.2,2.2-2.2c0.6,0,1.1,0.2,1.6,0.6
						c0.4,0.4,0.6,0.9,0.6,1.5c0,0.4-0.1,0.7-0.3,1.1c-0.1,0.2-0.2,0.4-0.4,0.7c-0.2,0.3-0.4,0.6-0.7,0.9L153.8,93.9z"/>
					<path d="M163.8,89h-2.1l-0.3,1.1c0,0,0.1,0,0.1,0s0.1,0,0.1,0c0.7,0,1.2,0.2,1.6,0.7c0.4,0.4,0.6,1,0.6,1.7
						c0,0.7-0.2,1.3-0.7,1.8c-0.5,0.5-1.1,0.7-1.8,0.7c-0.9,0-1.6-0.4-2.1-1.3l0.8-0.7c0.2,0.4,0.4,0.6,0.7,0.8
						c0.2,0.1,0.5,0.2,0.8,0.2c0.4,0,0.8-0.1,1-0.4c0.3-0.3,0.4-0.7,0.4-1.1c0-0.4-0.1-0.8-0.4-1.1c-0.3-0.3-0.6-0.4-1-0.4
						c-0.5,0-0.9,0.2-1.2,0.6h-0.3l1.1-3.6h2.8V89z"/>
				</g>
			</g>
			<g>
				<g>
					<path d="M79.1,76.2c2.6-5.1,7-8.7,13.3-10.6c9-2.7,16.9-0.4,23.3,6.6c0.5,0.5,0.7,1.4,1.7,1.4c0.8-2.4,1.6-4.9,2.9-7.1
						c0.6-1,0.1-1.5-0.5-2.1c-4.1-3.8-8.8-6.3-14.2-7.6c-3.8-0.9-10.7-0.6-15-0.6C92.7,45,98,33.9,98,33.9l-11.2,0l-0.5,1.8
						c0,0-4.8,22.3-12.7,33.5c-1.6,2.2-2.8,4.5-3.7,6.9H79.1z"/>
					<path d="M182.4,81c-3.3-16.1-17.5-26.3-34.3-24.7c-14.8,1.4-26.7,14.9-26.9,30.6c-0.2,13.2-10.7,22.8-24.2,22.1
						c-6.1-0.4-11.5-3.3-15.2-7.7H71.7c6.1,11.4,19.3,18.4,33.2,15.7c12-2.3,24.9-13.5,25-30.6c0.1-11.9,9-20.9,21-21.8
						c10.7-0.8,21,7.1,23.2,17.6c2.3,11.4-4.1,22.6-15.4,25.9c-9.9,2.9-18.2-0.1-24.9-8.3c-0.9,2.6-1.7,5-3,7.1
						c-0.8,1.2-0.2,1.8,0.6,2.6c9.1,8.7,24.1,10.6,35.3,4.4C178.6,107.3,185,94,182.4,81z"/>
				</g>
				<polygon points="116.8,41.6 95.1,41.7 86.9,34 116.7,34 				"/>
			</g>
		</g>
	</g>
</g>
</svg>
