<?xml version="1.0" encoding="utf-8"?>
<!-- Generator: Adobe Illustrator 27.1.1, SVG Export Plug-In . SVG Version: 6.00 Build 0)  -->
<svg version="1.1" xmlns="http://www.w3.org/2000/svg" xmlns:xlink="http://www.w3.org/1999/xlink" x="0px" y="0px"
	 viewBox="0 0 250 213.4" style="enable-background:new 0 0 250 213.4;" xml:space="preserve">
<style type="text/css">
	.st0{fill:#1B3861;}
	.st1{fill:url(#SVGID_1_);}
	.st2{fill:url(#SVGID_00000179633833012218496730000008825789307408725124_);}
	.st3{fill:url(#SVGID_00000055681200566436275130000005693477351121995955_);}
	.st4{fill:url(#SVGID_00000094607906739746399620000003060889280981952161_);}
	.st5{fill:url(#SVGID_00000183941736755256488930000004832035043832120473_);}
	.st6{fill:url(#SVGID_00000018936908368961312990000011730310712592466088_);}
</style>
<g id="Calque_5">
	<g id="Calque_3">
	</g>
</g>
<g id="Calque_1">
</g>
<g id="Calque_2">
	<g>
	</g>
</g>
<g id="Calque_4">
</g>
<g id="Mode_Isolation">
</g>
<g id="_x3C_Calque_x3E_">
	<g>
		<g>
			<g>
				<g>
					<g>
						<path class="st0" d="M30.9,175.5v-41.3h5.4v41.3H30.9z"/>
						<path class="st0" d="M57.1,175.5v-41.3h18c3.6,0,6.4,0.4,8.2,1.1c1.9,0.7,3.4,2.1,4.5,3.9c1.1,1.9,1.7,4,1.7,6.2
							c0,2.9-0.9,5.4-2.8,7.4c-1.9,2-4.7,3.3-8.6,3.8c1.4,0.7,2.5,1.4,3.2,2.1c1.6,1.5,3,3.3,4.4,5.5l7,11.2H86l-5.4-8.6
							c-1.6-2.5-2.9-4.4-3.9-5.7c-1-1.3-1.9-2.2-2.7-2.8c-0.8-0.5-1.6-0.9-2.4-1.1c-0.6-0.1-1.6-0.2-3-0.2h-6.2v18.3H57.1z
							 M62.5,152.5H74c2.4,0,4.4-0.3,5.7-0.8c1.4-0.5,2.4-1.3,3.1-2.5c0.7-1.1,1.1-2.4,1.1-3.7c0-2-0.7-3.6-2.1-4.8
							c-1.4-1.3-3.6-1.9-6.6-1.9H62.5V152.5z"/>
						<path class="st0" d="M110.1,175.5v-41.3h5.4v41.3H110.1z"/>
						<path class="st0" d="M134.4,162.5l5.1-0.4c0.2,2,0.8,3.7,1.7,5c0.9,1.3,2.2,2.4,4.1,3.2c1.8,0.8,3.9,1.2,6.2,1.2
							c2,0,3.8-0.3,5.4-0.9c1.6-0.6,2.7-1.4,3.5-2.5c0.8-1.1,1.1-2.2,1.1-3.5c0-1.3-0.4-2.4-1.1-3.3c-0.7-0.9-1.9-1.7-3.6-2.4
							c-1.1-0.4-3.5-1.1-7.2-2c-3.7-0.9-6.3-1.7-7.8-2.5c-1.9-1-3.4-2.3-4.3-3.8c-0.9-1.5-1.4-3.2-1.4-5c0-2,0.6-4,1.7-5.7
							c1.2-1.8,2.9-3.1,5.1-4c2.2-0.9,4.7-1.4,7.4-1.4c3,0,5.6,0.5,7.9,1.4c2.3,1,4.1,2.4,5.3,4.3c1.2,1.9,1.9,4,2,6.4l-5.1,0.4
							c-0.3-2.6-1.2-4.5-2.8-5.8c-1.6-1.3-3.9-2-7.1-2c-3.2,0-5.6,0.6-7.1,1.8c-1.5,1.2-2.2,2.6-2.2,4.3c0,1.5,0.5,2.7,1.6,3.6
							c1,0.9,3.7,1.9,8.1,2.9c4.4,1,7.3,1.8,9,2.6c2.4,1.1,4.1,2.5,5.2,4.1c1.1,1.7,1.7,3.6,1.7,5.8c0,2.2-0.6,4.2-1.8,6.1
							c-1.2,1.9-3,3.4-5.3,4.4c-2.3,1.1-4.9,1.6-7.8,1.6c-3.7,0-6.7-0.5-9.2-1.6c-2.5-1.1-4.4-2.7-5.8-4.8
							C135.2,167.7,134.4,165.2,134.4,162.5z"/>
						<path class="st0" d="M180.7,175.5l15.5-41.3h5.8l16.5,41.3h-6.1l-4.7-12.5h-17l-4.4,12.5H180.7z M192.4,158.6h13.8l-4.2-11.4
							c-1.3-3.5-2.2-6.3-2.9-8.6c-0.5,2.6-1.3,5.3-2.2,7.9L192.4,158.6z"/>
					</g>
				</g>
			</g>
		</g>
		<g>
			<linearGradient id="SVGID_1_" gradientUnits="userSpaceOnUse" x1="104.53" y1="83.7295" x2="103.6785" y2="99.4824">
				<stop  offset="0" style="stop-color:#0096D6"/>
				<stop  offset="1" style="stop-color:#1B4660"/>
			</linearGradient>
			<path class="st1" d="M104.8,83c0,0,8.9,5.8-0.4,12c-9.3,6.2-9,7-9,7s-1.9,3.1,1.6,2.7c3.5-0.4,14.7-7.3,15.5-13.5
				C113.4,85,104.8,83,104.8,83z"/>
			
				<linearGradient id="SVGID_00000033351313803190012250000017900142631043549833_" gradientUnits="userSpaceOnUse" x1="-412.4313" y1="-86.7734" x2="-394.7148" y2="-86.7734" gradientTransform="matrix(-0.8594 0.5114 -0.5114 -0.8594 -297.8704 218.2312)">
				<stop  offset="0" style="stop-color:#0096D6"/>
				<stop  offset="1" style="stop-color:#1B4660"/>
			</linearGradient>
			<path style="fill:url(#SVGID_00000033351313803190012250000017900142631043549833_);" d="M98,96.3c0,0-10.6-0.4-5.8-10.5
				c4.8-10.1,4-11.1,4-11.1s0.1-3.1-2.7-1c-2.8,2.1-8.9,13.8-6.4,19.5C89.7,99,98,96.3,98,96.3z"/>
			<g>
				<g>
					
						<radialGradient id="SVGID_00000088127809172198953920000007713107152503495571_" cx="154.6329" cy="181.3287" r="7.045" gradientTransform="matrix(1 0 0 1 -53.158 -97.5348)" gradientUnits="userSpaceOnUse">
						<stop  offset="0" style="stop-color:#0096D6"/>
						<stop  offset="1" style="stop-color:#1B4660"/>
					</radialGradient>
					<path style="fill:url(#SVGID_00000088127809172198953920000007713107152503495571_);" d="M105.2,88.5c0,3.2-2.6,5.9-5.9,5.9
						c-3.2,0-5.9-2.6-5.9-5.9c0-3.2,2.6-5.9,5.9-5.9C102.6,82.6,105.2,85.2,105.2,88.5z"/>
				</g>
			</g>
		</g>
		<g>
			<g>
				<g>
					<g>
						<path class="st0" d="M140.6,81.3h-1.2l0.6-1h1.6v6.8h-1V81.3z"/>
						<path class="st0" d="M146.8,87.4l-0.8-0.6l1.6-2.2c-0.1,0-0.2,0-0.2,0c-0.1,0-0.1,0-0.2,0c-0.5,0-1-0.2-1.4-0.6
							c-0.4-0.4-0.6-0.9-0.6-1.5c0-0.6,0.2-1.2,0.7-1.6c0.4-0.4,1-0.7,1.6-0.7c0.6,0,1.2,0.2,1.6,0.7c0.5,0.4,0.7,1,0.7,1.5
							c0,0.5-0.2,1.1-0.7,1.7L146.8,87.4z M146.3,82.5c0,0.4,0.1,0.7,0.4,0.9c0.3,0.3,0.6,0.4,0.9,0.4s0.7-0.1,0.9-0.4
							c0.3-0.3,0.4-0.6,0.4-0.9s-0.1-0.7-0.4-0.9c-0.2-0.2-0.6-0.4-0.9-0.4c-0.4,0-0.7,0.1-0.9,0.4
							C146.4,81.8,146.3,82.1,146.3,82.5z"/>
						<path class="st0" d="M155.7,81.3h-3.3v-1h5.1l-4.3,7l-0.8-0.5L155.7,81.3z"/>
						<path class="st0" d="M164,81.3h-2.1l-0.3,1.1c0,0,0.1,0,0.1,0c0,0,0.1,0,0.1,0c0.7,0,1.2,0.2,1.6,0.7c0.4,0.4,0.6,1,0.6,1.7
							c0,0.7-0.2,1.3-0.7,1.8s-1.1,0.7-1.8,0.7c-0.9,0-1.6-0.4-2.1-1.3l0.8-0.7c0.2,0.4,0.4,0.6,0.6,0.8c0.2,0.1,0.5,0.2,0.8,0.2
							c0.4,0,0.8-0.1,1-0.4c0.3-0.3,0.4-0.7,0.4-1.1c0-0.4-0.1-0.8-0.4-1.1c-0.3-0.3-0.6-0.4-1-0.4c-0.5,0-0.9,0.2-1.2,0.6h-0.3
							l1.1-3.6h2.8V81.3z"/>
					</g>
				</g>
				<g>
					<path class="st0" d="M139.6,95.3h2.5v1h-4.6l2.4-2.9c0.2-0.3,0.4-0.5,0.6-0.7c0.2-0.2,0.3-0.4,0.4-0.5c0.2-0.3,0.3-0.5,0.3-0.7
						c0-0.3-0.1-0.6-0.3-0.8s-0.5-0.3-0.8-0.3c-0.7,0-1.1,0.4-1.2,1.2h-1c0.2-1.4,0.9-2.1,2.2-2.1c0.6,0,1.1,0.2,1.6,0.6
						c0.4,0.4,0.6,0.9,0.6,1.5c0,0.4-0.1,0.7-0.3,1.1c-0.1,0.2-0.2,0.4-0.4,0.7c-0.2,0.3-0.4,0.6-0.7,0.9L139.6,95.3z"/>
					<path class="st0" d="M145.1,92.8c0-1.1,0.3-1.9,0.8-2.6c0.5-0.6,1-0.9,1.6-0.9s1.2,0.3,1.6,0.9c0.5,0.6,0.8,1.5,0.8,2.6
						c0,1.1-0.3,2-0.8,2.6c-0.5,0.6-1,0.9-1.6,0.9s-1.2-0.3-1.6-0.9C145.4,94.8,145.1,93.9,145.1,92.8z M146.1,92.8
						c0,0.8,0.1,1.4,0.4,1.9c0.3,0.5,0.6,0.7,1,0.7c0.4,0,0.7-0.2,1-0.7c0.3-0.5,0.4-1.1,0.4-1.8s-0.1-1.4-0.4-1.8
						c-0.3-0.5-0.6-0.7-1-0.7c-0.4,0-0.7,0.2-1,0.7C146.3,91.5,146.1,92.1,146.1,92.8z"/>
					<path class="st0" d="M154.3,95.3h2.5v1h-4.6l2.4-2.9c0.2-0.3,0.4-0.5,0.6-0.7c0.2-0.2,0.3-0.4,0.4-0.5c0.2-0.3,0.3-0.5,0.3-0.7
						c0-0.3-0.1-0.6-0.3-0.8s-0.5-0.3-0.8-0.3c-0.7,0-1.1,0.4-1.2,1.2h-1c0.2-1.4,0.9-2.1,2.2-2.1c0.6,0,1.1,0.2,1.6,0.6
						c0.4,0.4,0.6,0.9,0.6,1.5c0,0.4-0.1,0.7-0.3,1.1c-0.1,0.2-0.2,0.4-0.4,0.7c-0.2,0.3-0.4,0.6-0.7,0.9L154.3,95.3z"/>
					<path class="st0" d="M164.2,90.4h-2.1l-0.3,1.1c0,0,0.1,0,0.1,0c0,0,0.1,0,0.1,0c0.7,0,1.2,0.2,1.6,0.7c0.4,0.4,0.6,1,0.6,1.7
						c0,0.7-0.2,1.3-0.7,1.8s-1.1,0.7-1.8,0.7c-0.9,0-1.6-0.4-2.1-1.3l0.8-0.7c0.2,0.4,0.4,0.6,0.6,0.8c0.2,0.1,0.5,0.2,0.8,0.2
						c0.4,0,0.8-0.1,1-0.4c0.3-0.3,0.4-0.7,0.4-1.1c0-0.4-0.1-0.8-0.4-1.1c-0.3-0.3-0.6-0.4-1-0.4c-0.5,0-0.9,0.2-1.2,0.6h-0.3
						l1.1-3.6h2.8V90.4z"/>
				</g>
			</g>
			<g>
				<g>
					
						<linearGradient id="SVGID_00000107554444135602258990000000178842107161323163_" gradientUnits="userSpaceOnUse" x1="70.0628" y1="56.7104" x2="120.3268" y2="56.7104">
						<stop  offset="6.182062e-02" style="stop-color:#8D0140"/>
						<stop  offset="0.1816" style="stop-color:#A2043F"/>
						<stop  offset="0.4081" style="stop-color:#C5082F"/>
						<stop  offset="0.569" style="stop-color:#DB071D"/>
						<stop  offset="0.6479" style="stop-color:#E30613"/>
					</linearGradient>
					<path style="fill:url(#SVGID_00000107554444135602258990000000178842107161323163_);" d="M79.2,77.7c2.5-5.1,7-8.7,13.2-10.5
						c8.9-2.7,16.8-0.4,23.2,6.5c0.5,0.5,0.7,1.4,1.7,1.4c0.8-2.4,1.5-4.9,2.9-7c0.6-1,0.1-1.5-0.5-2.1c-4-3.7-8.7-6.2-14.1-7.5
						c-3.8-0.9-10.6-0.6-14.9-0.6c2.1-11.1,7.4-22.1,7.4-22.1l-11.2,0l-0.5,1.8c0,0-4.8,22.2-12.6,33.2c-1.5,2.2-2.7,4.5-3.6,6.9
						H79.2z"/>
					
						<linearGradient id="SVGID_00000116948320636572417040000005783749128532514953_" gradientUnits="userSpaceOnUse" x1="88.8741" y1="88.2657" x2="175.3632" y2="88.2657">
						<stop  offset="0.2551" style="stop-color:#8D0140"/>
						<stop  offset="0.3673" style="stop-color:#A2043F"/>
						<stop  offset="0.5793" style="stop-color:#C5082F"/>
						<stop  offset="0.7299" style="stop-color:#DB071D"/>
						<stop  offset="0.8037" style="stop-color:#E30613"/>
					</linearGradient>
					<path style="fill:url(#SVGID_00000116948320636572417040000005783749128532514953_);" d="M181.7,82.5
						c-3.3-16-17.3-26.1-34-24.5c-14.7,1.4-26.4,14.7-26.7,30.4c-0.2,13.1-10.7,22.7-24,21.9c-6.1-0.3-11.4-3.3-15.1-7.7h-10
						c6.1,11.3,19.1,18.2,32.9,15.6c11.9-2.3,24.7-13.4,24.8-30.3c0.1-11.9,9-20.7,20.8-21.7c10.6-0.8,20.9,7,23,17.5
						c2.3,11.3-4.1,22.4-15.3,25.7c-9.8,2.9-18-0.1-24.7-8.2c-0.9,2.6-1.6,5-3,7c-0.8,1.2-0.2,1.8,0.6,2.6c9,8.6,23.9,10.5,35.1,4.4
						C177.9,108.5,184.3,95.3,181.7,82.5z"/>
				</g>
				
					<linearGradient id="SVGID_00000174571995427925523750000000872683658905050518_" gradientUnits="userSpaceOnUse" x1="86.8988" y1="39.6438" x2="116.6348" y2="39.6438">
					<stop  offset="0.2551" style="stop-color:#8D0140"/>
					<stop  offset="0.3673" style="stop-color:#A2043F"/>
					<stop  offset="0.5793" style="stop-color:#C5082F"/>
					<stop  offset="0.7299" style="stop-color:#DB071D"/>
					<stop  offset="0.8037" style="stop-color:#E30613"/>
				</linearGradient>
				<polygon style="fill:url(#SVGID_00000174571995427925523750000000872683658905050518_);" points="116.6,43.4 95,43.5 86.9,35.8 
					116.5,35.8 				"/>
			</g>
		</g>
	</g>
</g>
</svg>
